<svg xmlns="http://www.w3.org/2000/svg" width="1200" height="400" viewBox="0 0 1200 400" role="img"><title>05-banners/email-light</title><rect x="0" y="0" width="1200" height="400" rx="0" fill="#F5F8FC"/><g transform="translate(520 0) scale(1)"><path d="M-130 448V232C-130 103 -38 52 87 52H640M12 457V275C12 216 56 194 116 194H640M166 457V370C166 339 194 319 232 319H640" fill="none" stroke="#E9F1FC" stroke-width="60" stroke-linecap="round" stroke-linejoin="round"/><circle cx="551" cy="112" r="56" fill="#216FD3"/><rect x="349" y="187" width="228" height="151" rx="24" fill="#FFFFFF" stroke="#B4CDED" stroke-width="3"/><path d="M387 292V259M429 292V233M471 292V249M513 292V218" fill="none" stroke="#216FD3" stroke-width="13" stroke-linecap="round" stroke-linejoin="round"/></g></svg>